<svg aria-hidden="true" style="position: absolute; width: 0; height: 0; overflow: hidden;" version="1.1" xmlns="http://www.w3.org/2000/svg" xmlns:xlink="http://www.w3.org/1999/xlink">
<defs>
<symbol id="icon-facebook" viewBox="0 0 32 32">
<path d="M14.825 0.063c-5.225 0.406-9.869 3.294-12.575 7.813-2.050 3.425-2.719 7.662-1.837 11.625 1.212 5.45 5.225 9.875 10.556 11.656 0.787 0.262 2.125 0.594 2.4 0.594h0.131v-11.125h-4.063v-4.625h4.063v-2.213c0-1.694 0.025-2.338 0.094-2.763 0.456-2.644 2.169-4.331 4.769-4.713 0.681-0.1 2.694-0.050 3.875 0.094l0.887 0.112v3.962l-1.325 0.037c-1.5 0.037-1.813 0.1-2.344 0.463-0.181 0.119-0.413 0.35-0.519 0.506-0.356 0.537-0.387 0.744-0.419 2.713l-0.031 1.8h2.225c1.956 0 2.225 0.013 2.225 0.094 0 0.106-0.6 4.075-0.663 4.363l-0.038 0.169h-3.738v11.125h0.131c0.275 0 1.613-0.331 2.4-0.594 3.244-1.081 5.931-3.063 7.956-5.863 2.625-3.631 3.581-8.338 2.6-12.794-1.194-5.406-5.269-9.906-10.55-11.656-1.95-0.644-4.231-0.931-6.213-0.781z"></path>
</symbol>
<symbol id="icon-address" viewBox="0 0 32 32">
<path d="M14.625 1.781c-1.844 0.313-3.338 1.069-4.662 2.356-0.344 0.338-0.787 0.831-0.981 1.106-1.969 2.725-2.162 6.169-0.55 9.475 0.488 0.988 0.875 1.519 2.4 3.281l1.269 1.469-4.412 0.063-0.15 0.156c-0.119 0.119-0.506 1.25-1.656 4.794-0.831 2.55-1.506 4.694-1.506 4.769 0 0.212 0.175 0.488 0.375 0.594 0.162 0.081 1.481 0.094 11.294 0.094 9.975 0 11.131-0.012 11.256-0.1 0.169-0.119 0.325-0.406 0.325-0.6 0-0.075-0.675-2.219-1.5-4.769-1.331-4.088-1.525-4.644-1.694-4.794l-0.181-0.175h-1.644c-1.581 0-1.65 0.006-1.788 0.131-0.262 0.25-0.325 0.613-0.156 0.938 0.163 0.319 0.387 0.369 1.644 0.369h1.125l0.788 2.419c0.438 1.337 0.988 3.019 1.225 3.744s0.431 1.337 0.431 1.363c0 0.019-4.444 0.038-9.881 0.038h-9.875l0.044-0.144c0.075-0.244 1.075-3.319 1.75-5.406l0.656-2.012h4.8l0.875 1.012 0.875 1.019-0.719 0.031c-0.719 0.031-0.725 0.031-0.906 0.238-0.125 0.144-0.181 0.269-0.181 0.425 0 0.262 0.144 0.556 0.306 0.65 0.169 0.087 4.594 0.087 4.762 0 0.163-0.094 0.306-0.387 0.306-0.65 0-0.156-0.056-0.281-0.181-0.425-0.181-0.206-0.188-0.206-0.906-0.238l-0.719-0.031 2.781-3.219c1.531-1.769 2.95-3.456 3.156-3.744 1.3-1.85 2.006-4.375 1.806-6.444-0.038-0.406-0.119-0.956-0.188-1.225-0.819-3.419-3.6-6-7.063-6.556-0.712-0.113-2.094-0.113-2.75 0zM17.225 3.219c1.806 0.319 3.475 1.35 4.619 2.875 0.425 0.563 0.944 1.656 1.131 2.375 0.2 0.762 0.269 2.056 0.156 2.85-0.206 1.369-0.863 2.987-1.663 4.044-0.419 0.563-5.406 6.325-5.469 6.325s-4.981-5.688-5.456-6.306c-1.031-1.363-1.731-3.425-1.731-5.125 0-1.975 0.744-3.694 2.2-5.106 1.044-1.013 2.319-1.669 3.738-1.931 0.637-0.112 1.806-0.112 2.475 0z"></path>
<path d="M15.075 6.906c-1 0.281-1.794 0.938-2.238 1.869-0.281 0.575-0.356 1.012-0.319 1.725 0.075 1.519 1.094 2.781 2.544 3.156 0.512 0.137 1.406 0.131 1.9 0 1.206-0.319 2.212-1.381 2.481-2.606 0.113-0.531 0.044-1.488-0.144-1.994-0.331-0.9-1.119-1.688-2.019-2.031-0.55-0.213-1.669-0.269-2.206-0.119zM16.688 8.356c0.762 0.262 1.3 0.975 1.363 1.781 0.075 1.025-0.569 1.881-1.606 2.15-0.887 0.225-1.8-0.2-2.262-1.050-0.2-0.369-0.213-0.431-0.213-0.956 0-0.488 0.025-0.606 0.169-0.875 0.512-0.975 1.544-1.4 2.55-1.050z"></path>
</symbol>
<symbol id="icon-instagram" viewBox="0 0 32 32">
<path d="M16 2.881c4.275 0 4.781 0.019 6.462 0.094 1.563 0.069 2.406 0.331 2.969 0.55 0.744 0.288 1.281 0.638 1.837 1.194 0.563 0.563 0.906 1.094 1.2 1.838 0.219 0.563 0.481 1.412 0.55 2.969 0.075 1.688 0.094 2.194 0.094 6.463s-0.019 4.781-0.094 6.463c-0.069 1.563-0.331 2.406-0.55 2.969-0.288 0.744-0.637 1.281-1.194 1.837-0.563 0.563-1.094 0.906-1.837 1.2-0.563 0.219-1.413 0.481-2.969 0.55-1.688 0.075-2.194 0.094-6.463 0.094s-4.781-0.019-6.463-0.094c-1.563-0.069-2.406-0.331-2.969-0.55-0.744-0.288-1.281-0.637-1.838-1.194-0.563-0.563-0.906-1.094-1.2-1.837-0.219-0.563-0.481-1.413-0.55-2.969-0.075-1.688-0.094-2.194-0.094-6.463s0.019-4.781 0.094-6.463c0.069-1.563 0.331-2.406 0.55-2.969 0.288-0.744 0.638-1.281 1.194-1.838 0.563-0.563 1.094-0.906 1.838-1.2 0.563-0.219 1.412-0.481 2.969-0.55 1.681-0.075 2.188-0.094 6.463-0.094zM16 0c-4.344 0-4.887 0.019-6.594 0.094-1.7 0.075-2.869 0.35-3.881 0.744-1.056 0.412-1.95 0.956-2.837 1.85-0.894 0.888-1.438 1.781-1.85 2.831-0.394 1.019-0.669 2.181-0.744 3.881-0.075 1.713-0.094 2.256-0.094 6.6s0.019 4.887 0.094 6.594c0.075 1.7 0.35 2.869 0.744 3.881 0.413 1.056 0.956 1.95 1.85 2.837 0.887 0.887 1.781 1.438 2.831 1.844 1.019 0.394 2.181 0.669 3.881 0.744 1.706 0.075 2.25 0.094 6.594 0.094s4.888-0.019 6.594-0.094c1.7-0.075 2.869-0.35 3.881-0.744 1.050-0.406 1.944-0.956 2.831-1.844s1.438-1.781 1.844-2.831c0.394-1.019 0.669-2.181 0.744-3.881 0.075-1.706 0.094-2.25 0.094-6.594s-0.019-4.887-0.094-6.594c-0.075-1.7-0.35-2.869-0.744-3.881-0.394-1.063-0.938-1.956-1.831-2.844-0.887-0.887-1.781-1.438-2.831-1.844-1.019-0.394-2.181-0.669-3.881-0.744-1.712-0.081-2.256-0.1-6.6-0.1v0z"></path>
<path d="M16 7.781c-4.537 0-8.219 3.681-8.219 8.219s3.681 8.219 8.219 8.219 8.219-3.681 8.219-8.219c0-4.537-3.681-8.219-8.219-8.219zM16 21.331c-2.944 0-5.331-2.387-5.331-5.331s2.387-5.331 5.331-5.331c2.944 0 5.331 2.387 5.331 5.331s-2.387 5.331-5.331 5.331z"></path>
<path d="M26.462 7.456c0 1.060-0.859 1.919-1.919 1.919s-1.919-0.859-1.919-1.919c0-1.060 0.859-1.919 1.919-1.919s1.919 0.859 1.919 1.919z"></path>
</symbol>
<symbol id="icon-phone" viewBox="0 0 32 32">
<path d="M14.95 0.412c-0.725 0.094-1.019 0.181-1.544 0.45-0.781 0.406-1.306 1.1-1.463 1.919-0.031 0.175-0.063 2.506-0.069 5.344-0.012 4.306 0 5.1 0.081 5.5 0.262 1.3 0.819 2.044 1.775 2.387 0.269 0.1 0.563 0.137 1.131 0.163l0.769 0.025-0.044 0.256c-0.069 0.431-0.056 1.806 0.031 2.238 0.225 1.15 0.831 1.431 1.95 0.894 0.613-0.294 1.625-1.044 3.025-2.25 0.55-0.469 1.075-0.913 1.175-0.981 0.169-0.131 0.244-0.131 3.281-0.137 2.95-0.006 3.137-0.012 3.762-0.144 2.044-0.431 2.762-1.050 3.038-2.637 0.113-0.656 0.106-1.781-0.038-5.625-0.050-1.369-0.063-2.469-0.025-3.375 0.063-1.494 0.025-2.006-0.194-2.481-0.381-0.844-1.381-1.438-2.625-1.55-0.794-0.075-13.425-0.069-14.019 0.006zM22.563 0.719l6.406 0.006 0.344 0.138c0.731 0.294 1.288 0.863 1.544 1.562 0.313 0.85 0.363 1.712 0.225 3.794-0.050 0.794-0.050 2.381-0.006 5.594 0.019 1.8-0.025 2.1-0.425 2.912-0.188 0.375-0.275 0.475-0.55 0.637-0.45 0.269-0.806 0.375-1.65 0.481-0.625 0.081-0.906 0.088-1.831 0.025-0.594-0.037-1.788-0.081-2.65-0.094-1.419-0.019-1.6-0.012-1.981 0.1-0.512 0.156-1.306 0.675-2.050 1.35-0.294 0.262-0.637 0.556-0.769 0.656-0.131 0.094-0.506 0.425-0.837 0.738-0.65 0.613-1.144 0.913-1.413 0.85-0.081-0.025-0.238-0.125-0.331-0.231l-0.181-0.181v-1.481c0-1.825 0.012-1.794-0.581-1.731-0.856 0.081-1.769-0.194-2.262-0.675-0.7-0.694-1.025-1.894-0.931-3.494 0.025-0.425 0.044-2.6 0.044-4.831 0-3.962 0.006-4.075 0.131-4.481 0.238-0.738 0.738-1.244 1.481-1.488 0.563-0.188 0.975-0.244 1.463-0.206 0.225 0.019 3.287 0.044 6.813 0.050z"></path>
<path d="M15.831 4.688c-0.113 0.069-0.206 0.162-0.206 0.213 0 0.056 0.081 0.112 0.206 0.131 0.106 0.019 2.856 0.031 6.094 0.019l5.9-0.019 0.15-0.175c0.081-0.1 0.137-0.206 0.119-0.237-0.025-0.031-2.425-0.056-6.050-0.056-5.881 0-6.019 0-6.213 0.125zM15.775 7.894c-0.113 0.1-0.156 0.188-0.131 0.25 0.037 0.1 0.512 0.106 6.094 0.106h6.056l0.169-0.156c0.094-0.088 0.163-0.194 0.144-0.237-0.019-0.056-1.363-0.081-6.094-0.094l-6.069-0.013-0.169 0.144zM17.219 10.938c-1.363 0.131-1.75 0.244-1.556 0.438 0.037 0.037 1.894 0.063 4.481 0.063 3.887 0.006 4.438-0.006 4.606-0.094 0.194-0.1 0.244-0.238 0.119-0.319-0.044-0.025-0.837-0.050-1.769-0.056-0.931-0.012-2.506-0.031-3.506-0.050-0.994-0.019-2.063-0.006-2.375 0.019zM4.406 7.831c-0.413 0.138-0.525 0.219-1.544 1.119-1.431 1.262-2.1 2.056-2.481 2.95-0.6 1.425 0.512 5.206 2.481 8.413 1.544 2.512 3.869 5.081 6.356 7.012 3.031 2.35 6.113 3.9 8.462 4.238 0.806 0.119 2.050 0.050 2.644-0.144 0.444-0.144 0.556-0.212 1.219-0.8 1.625-1.438 2.212-2.081 2.563-2.837 0.15-0.319 0.175-0.456 0.175-0.906 0-0.756-0.106-0.919-1.587-2.444-1.906-1.969-2.619-2.538-3.363-2.675-0.925-0.175-1.975 0.469-3.644 2.244l-0.781 0.825-0.363-0.031c-0.95-0.087-2.9-1.444-4.6-3.206-1.981-2.050-2.906-3.781-2.544-4.744 0.088-0.225 0.206-0.356 0.575-0.631 0.669-0.506 1.6-1.444 1.925-1.944 0.375-0.581 0.5-0.981 0.463-1.481-0.056-0.662-0.213-0.863-2.106-2.781-1.606-1.619-1.756-1.756-2.206-1.975-0.4-0.194-0.569-0.244-0.938-0.256-0.269-0.013-0.556 0.013-0.706 0.056zM5.888 8.744c0.25 0.2 1.125 1.044 1.938 1.869 1.656 1.675 1.756 1.813 1.763 2.512 0.006 0.644-0.162 0.869-1.838 2.469-0.794 0.756-1.081 1.137-1.225 1.644-0.175 0.594-0.069 0.913 0.675 2.025 1.706 2.569 3.419 4.262 5.575 5.519 0.931 0.538 1.331 0.681 1.806 0.637 0.619-0.056 0.994-0.281 1.731-1.063 1.462-1.544 1.663-1.725 2.094-1.925 0.794-0.375 1.225-0.137 2.756 1.506 0.244 0.256 0.775 0.794 1.188 1.194 0.919 0.894 1.169 1.281 1.2 1.869 0.031 0.519-0.113 0.831-0.581 1.281-0.175 0.169-0.669 0.681-1.087 1.137-1.625 1.762-2.238 1.988-4.1 1.494-4.056-1.069-7.387-3.050-10.569-6.3-1.494-1.519-2.656-3.031-3.8-4.944-0.644-1.075-0.875-1.556-1.425-2.919-0.8-1.975-0.988-2.662-0.994-3.65-0.006-1.050 0.231-1.588 1.063-2.412 0.263-0.262 0.775-0.8 1.15-1.2 0.813-0.881 1.194-1.113 1.831-1.113 0.388 0 0.4 0.006 0.85 0.369z"></path>
</symbol>
</defs>
</svg>
