<svg width="59" height="56" viewBox="0 0 59 56" fill="none" xmlns="http://www.w3.org/2000/svg">
<path d="M59 28C59 43.464 45.9083 56 29.7588 56C13.6093 56 0.517544 43.464 0.517544 28C0.517544 12.536 13.6093 0 29.7588 0C45.9083 0 59 12.536 59 28Z" fill="white"/>
<path fill-rule="evenodd" clip-rule="evenodd" d="M38.4256 6.62955V17.0095L38.8231 17.3645H41.3819L43.1245 18.6096L44.7032 19.8433L45.6382 20.6784H47.5607L51.4058 24.355L53.377 28.3602L51.4682 31.9403L48.8218 35.9584L58.5 33L58 35.5L37.3116 42.328L19.8096 46.7048L26.502 39.9058L32.5648 31.567H34.9393L37.6901 33.5017L43.2693 31.2594L45.612 34.1887L46.5789 33.9097L48.8863 30.4063L50.0064 28.3054L48.9487 26.1562L46.3573 23.6784H44.4936L42.7783 22.1464L41.328 21.0131L40.4203 20.3645H37.6785L35.4256 18.3524V17.3704L33.0379 21.3113H26.1747L22.6552 22.4115L17.2841 24.4958L13.2973 26.5351L9.16316 29.5896L3.81972 32.6733H1L0.62366 29.6733H3.01617L7.51679 27.076L11.7123 23.9762L16.0551 21.7547L21.6639 19.5782L25.7167 18.3113H31.3479L38.4256 6.62955ZM44.2247 37.2572L42.3191 34.8745L37.297 36.8929L34.058 34.6148L29.2288 41.2569L36.5397 39.4286L44.2247 37.2572Z" fill="url(#paint0_linear_1_8)"/>
<defs>
<linearGradient id="paint0_linear_1_8" x1="37.9668" y1="12" x2="37.9668" y2="43.9555" gradientUnits="userSpaceOnUse">
<stop stop-color="#FCC40C"/>
<stop offset="1" stop-color="#1E1E1E"/>
</linearGradient>
</defs>
</svg>
